<?xml version="1.0" standalone="no"?>
<!DOCTYPE svg PUBLIC "-//W3C//DTD SVG 20010904//EN"
 "http://www.w3.org/TR/2001/REC-SVG-20010904/DTD/svg10.dtd">
<svg version="1.0" xmlns="http://www.w3.org/2000/svg"
 width="1022.000000pt" height="1280.000000pt" viewBox="0 0 1022.000000 1280.000000"
 preserveAspectRatio="xMidYMid meet">
<metadata>
Created by potrace 1.15, written by Peter Selinger 2001-2017
</metadata>
<g transform="translate(0.000000,1280.000000) scale(0.100000,-0.100000)"
fill="#000000" stroke="none">
<path d="M2635 12791 c-80 -21 -159 -81 -194 -149 -9 -17 -54 -55 -107 -90
-440 -294 -661 -873 -475 -1247 206 -416 790 -386 1201 62 109 119 214 297
265 447 50 153 61 364 24 496 -50 182 -162 307 -330 371 -28 11 -66 31 -83 44
-75 57 -217 88 -301 66z"/>
<path d="M4905 12566 c-87 -20 -149 -52 -210 -108 -60 -55 -110 -143 -121
-213 -6 -41 -12 -49 -73 -92 -151 -108 -314 -311 -391 -491 -102 -236 -124
-476 -66 -706 145 -568 747 -826 1311 -560 328 154 584 480 659 841 22 105 29
248 17 338 -7 44 -16 115 -22 159 -31 248 -184 481 -431 657 -204 145 -486
218 -673 175z"/>
<path d="M1046 10030 c-92 -15 -172 -37 -232 -66 -55 -26 -129 -92 -139 -125
-3 -10 -44 -43 -90 -74 -372 -248 -559 -636 -581 -1210 -20 -505 122 -1092
383 -1585 76 -143 244 -395 341 -510 44 -52 133 -147 198 -210 192 -187 350
-298 589 -415 214 -105 401 -164 640 -202 154 -24 496 -24 655 0 451 70 848
245 1174 518 336 281 498 606 513 1025 10 279 -36 536 -146 813 -209 526 -575
987 -1106 1391 -60 46 -155 121 -211 166 -55 44 -134 101 -175 125 -256 150
-681 277 -1154 345 -120 18 -575 27 -659 14z"/>
<path d="M5803 9911 c-61 -21 -112 -58 -150 -109 -16 -20 -48 -55 -72 -77
-181 -163 -244 -237 -316 -367 -44 -81 -88 -208 -105 -304 -19 -104 -8 -300
20 -384 100 -294 329 -460 634 -460 441 0 861 378 936 843 18 109 8 293 -20
377 -65 192 -175 321 -345 401 -45 21 -111 43 -150 49 -38 7 -104 20 -146 31
-95 24 -215 24 -286 0z"/>
<path d="M6585 6791 c-57 -15 -113 -50 -154 -97 -31 -35 -66 -59 -139 -94
-410 -199 -693 -624 -669 -1009 10 -163 59 -273 165 -373 111 -103 232 -147
407 -148 266 0 535 128 761 362 157 163 252 333 299 536 19 83 19 251 0 327
-36 140 -132 269 -245 329 -30 16 -77 49 -103 73 -65 60 -140 93 -224 98 -37
2 -81 1 -98 -4z"/>
<path d="M8788 6250 c-59 -10 -146 -50 -193 -87 -45 -35 -111 -133 -125 -184
-9 -31 -18 -42 -47 -54 -74 -31 -230 -145 -310 -227 -230 -232 -337 -468 -349
-768 -7 -158 12 -273 66 -402 227 -546 922 -703 1466 -332 247 169 419 414
496 707 19 72 22 109 22 302 0 254 -6 289 -83 450 -158 332 -499 582 -816 600
-44 2 -101 0 -127 -5z m1020 -895 c0 -11 -6 3 -14 30 -7 28 -13 55 -13 60 2
17 27 -69 27 -90z"/>
<path d="M4550 4279 c-130 -16 -234 -62 -274 -123 -9 -15 -48 -40 -91 -60
-108 -50 -226 -130 -335 -228 -99 -88 -333 -331 -438 -454 -340 -400 -502
-753 -502 -1097 0 -193 30 -324 119 -512 86 -181 206 -339 402 -530 284 -276
617 -503 1079 -734 984 -491 2005 -667 2560 -442 104 43 173 88 250 162 367
357 485 939 320 1589 -77 307 -217 613 -413 910 -134 202 -246 338 -446 545
-80 83 -182 188 -226 234 -103 108 -160 156 -265 224 -487 315 -1333 566
-1740 516z"/>
<path d="M9347 3500 c-64 -16 -133 -57 -173 -103 -22 -24 -66 -59 -99 -77
-221 -121 -404 -352 -481 -606 -24 -78 -27 -106 -28 -229 0 -156 12 -210 69
-326 114 -227 332 -352 612 -350 248 1 488 106 671 293 137 139 215 269 268
443 23 78 27 108 28 225 1 120 -2 144 -26 220 -37 116 -90 200 -174 279 -81
76 -142 111 -257 151 -45 16 -114 40 -154 54 -80 29 -197 41 -256 26z"/>
</g>
</svg>
