<svg aria-hidden="true" style="position: absolute; width: 0; height: 0; overflow: hidden;" version="1.1" xmlns="http://www.w3.org/2000/svg" xmlns:xlink="http://www.w3.org/1999/xlink">
<defs>
<symbol id="icon-phone" viewBox="0 0 32 32">
<path d="M24.882 19.773l-3.268-0.373c-0.785-0.090-1.557 0.18-2.11 0.733l-2.367 2.367c-3.641-1.853-6.626-4.825-8.478-8.478l2.38-2.38c0.553-0.553 0.823-1.325 0.733-2.11l-0.373-3.242c-0.154-1.299-1.248-2.277-2.56-2.277h-2.226c-1.454 0-2.663 1.209-2.573 2.663 0.682 10.987 9.469 19.761 20.443 20.443 1.454 0.090 2.663-1.119 2.663-2.573v-2.226c0.013-1.3-0.965-2.393-2.264-2.547z"></path>
</symbol>
<symbol id="icon-cross" viewBox="0 0 32 32">
<path d="M31.556 3.578l-3.133-3.133-12.422 12.422-12.422-12.422-3.133 3.133 12.422 12.422-12.422 12.422 3.133 3.133 12.422-12.422 12.422 12.422 3.133-3.133-12.422-12.422 12.422-12.422z"></path>
</symbol>
<symbol id="icon-mob-menu--close" viewBox="0 0 32 32">
<path d="M19.223 16l9.828-9.806c0.43-0.43 0.672-1.014 0.672-1.623s-0.242-1.192-0.672-1.623c-0.43-0.43-1.014-0.672-1.623-0.672s-1.192 0.242-1.623 0.672l-9.806 9.829-9.806-9.829c-0.43-0.43-1.014-0.672-1.623-0.672s-1.192 0.242-1.623 0.672c-0.43 0.43-0.672 1.014-0.672 1.623s0.242 1.192 0.672 1.623l9.829 9.806-9.829 9.806c-0.214 0.213-0.384 0.465-0.5 0.744s-0.176 0.577-0.176 0.879c0 0.302 0.060 0.601 0.176 0.879s0.286 0.531 0.5 0.744c0.212 0.214 0.465 0.384 0.744 0.5s0.577 0.176 0.879 0.176 0.601-0.060 0.879-0.176c0.279-0.116 0.531-0.286 0.744-0.5l9.806-9.828 9.806 9.828c0.213 0.214 0.465 0.384 0.744 0.5s0.577 0.176 0.879 0.176c0.302 0 0.601-0.060 0.879-0.176s0.531-0.286 0.744-0.5c0.214-0.212 0.384-0.465 0.5-0.744s0.176-0.577 0.176-0.879c0-0.302-0.060-0.6-0.176-0.879s-0.286-0.531-0.5-0.744l-9.828-9.806z"></path>
</symbol>
<symbol id="icon-mob-menu--open" viewBox="0 0 48 32">
<path fill="#11385c" style="fill: var(--color1, #11385c)" d="M2.533 0h42.933c1.399 0 2.533 1.134 2.533 2.533v0.267c0 1.399-1.134 2.533-2.533 2.533h-42.933c-1.399 0-2.533-1.134-2.533-2.533v-0.267c0-1.399 1.134-2.533 2.533-2.533zM45.467 13.333h-42.933c-1.399 0-2.533 1.134-2.533 2.533v0.267c0 1.399 1.134 2.533 2.533 2.533h42.933c1.399 0 2.533-1.134 2.533-2.533v-0.267c0-1.399-1.134-2.533-2.533-2.533zM45.467 26.667h-42.933c-1.399 0-2.533 1.134-2.533 2.533v0.267c0 1.399 1.134 2.533 2.533 2.533h42.933c1.399 0 2.533-1.134 2.533-2.533v-0.267c0-1.399-1.134-2.533-2.533-2.533z"></path>
</symbol>
<symbol id="icon-foot-tel" viewBox="0 0 30 32">
<path d="M3.582 1.771c0.332-0.332 0.732-0.589 1.171-0.755s0.909-0.237 1.378-0.207c0.469 0.029 0.926 0.158 1.342 0.377s0.78 0.525 1.068 0.895l3.411 4.381c0.625 0.804 0.845 1.851 0.598 2.839l-1.039 4.161c-0.054 0.216-0.051 0.441 0.008 0.655s0.173 0.409 0.33 0.566l4.668 4.668c0.157 0.157 0.353 0.271 0.567 0.33s0.441 0.062 0.656 0.008l4.159-1.039c0.488-0.122 0.996-0.131 1.488-0.028s0.954 0.318 1.35 0.626l4.381 3.408c1.575 1.226 1.72 3.553 0.31 4.961l-1.965 1.965c-1.406 1.406-3.507 2.024-5.466 1.334-5.014-1.764-9.566-4.634-13.319-8.398-3.763-3.752-6.634-8.304-8.398-13.317-0.688-1.957-0.070-4.060 1.336-5.466l1.965-1.965z"></path>
</symbol>
</defs>
</svg>
